<mxfile host="app.diagrams.net" modified="2023-05-06T13:31:15.897Z" agent="Mozilla/5.0 (Windows NT 10.0; Win64; x64) AppleWebKit/537.36 (KHTML, like Gecko) Chrome/113.0.0.0 Safari/537.36" etag="VsCUnJ9ohjK6oyEhycRz" version="21.2.9" type="device" pages="3">
  <diagram name="Lv2-3" id="_M-2xF81Z97StXX9Xhtc">
    <mxGraphModel dx="1105" dy="569" grid="1" gridSize="10" guides="1" tooltips="1" connect="1" arrows="1" fold="1" page="1" pageScale="1" pageWidth="827" pageHeight="1169" math="0" shadow="0">
      <root>
        <mxCell id="0" />
        <mxCell id="1" parent="0" />
        <mxCell id="rX6alPP_R84iCfiomxFw-1" value="" style="rounded=0;whiteSpace=wrap;html=1;" parent="1" vertex="1">
          <mxGeometry x="10" y="35" width="1140" height="630" as="geometry" />
        </mxCell>
        <mxCell id="rX6alPP_R84iCfiomxFw-9" value="" style="rounded=0;whiteSpace=wrap;html=1;" parent="1" vertex="1">
          <mxGeometry x="30" y="100" width="1100" height="130" as="geometry" />
        </mxCell>
        <mxCell id="rX6alPP_R84iCfiomxFw-12" value="CATALOGO" style="ellipse;whiteSpace=wrap;html=1;" parent="1" vertex="1">
          <mxGeometry x="220" y="160" width="90" height="60" as="geometry" />
        </mxCell>
        <mxCell id="rX6alPP_R84iCfiomxFw-13" value="HOME" style="ellipse;whiteSpace=wrap;html=1;" parent="1" vertex="1">
          <mxGeometry x="80" y="160" width="90" height="60" as="geometry" />
        </mxCell>
        <mxCell id="rX6alPP_R84iCfiomxFw-19" value="FAQ" style="ellipse;whiteSpace=wrap;html=1;" parent="1" vertex="1">
          <mxGeometry x="480" y="160" width="90" height="60" as="geometry" />
        </mxCell>
        <mxCell id="rX6alPP_R84iCfiomxFw-20" value="CONTATTACI" style="ellipse;whiteSpace=wrap;html=1;" parent="1" vertex="1">
          <mxGeometry x="610" y="160" width="90" height="60" as="geometry" />
        </mxCell>
        <mxCell id="rX6alPP_R84iCfiomxFw-21" value="LOGOUT" style="ellipse;whiteSpace=wrap;html=1;" parent="1" vertex="1">
          <mxGeometry x="960" y="160" width="90" height="60" as="geometry" />
        </mxCell>
        <mxCell id="ifP3_OmQZTy_K7tesigm-2" style="edgeStyle=orthogonalEdgeStyle;rounded=0;orthogonalLoop=1;jettySize=auto;html=1;exitX=0.5;exitY=1;exitDx=0;exitDy=0;entryX=0.5;entryY=0;entryDx=0;entryDy=0;" parent="1" source="rX6alPP_R84iCfiomxFw-22" target="rX6alPP_R84iCfiomxFw-23" edge="1">
          <mxGeometry relative="1" as="geometry" />
        </mxCell>
        <mxCell id="rX6alPP_R84iCfiomxFw-22" value="AREA RISERVATA" style="ellipse;whiteSpace=wrap;html=1;" parent="1" vertex="1">
          <mxGeometry x="780" y="160" width="110" height="60" as="geometry" />
        </mxCell>
        <mxCell id="ifP3_OmQZTy_K7tesigm-1" style="edgeStyle=orthogonalEdgeStyle;rounded=0;orthogonalLoop=1;jettySize=auto;html=1;exitX=0.5;exitY=1;exitDx=0;exitDy=0;" parent="1" source="rX6alPP_R84iCfiomxFw-23" target="rX6alPP_R84iCfiomxFw-24" edge="1">
          <mxGeometry relative="1" as="geometry" />
        </mxCell>
        <mxCell id="ifP3_OmQZTy_K7tesigm-5" style="edgeStyle=orthogonalEdgeStyle;rounded=0;orthogonalLoop=1;jettySize=auto;html=1;exitX=0.5;exitY=1;exitDx=0;exitDy=0;" parent="1" source="rX6alPP_R84iCfiomxFw-23" target="rX6alPP_R84iCfiomxFw-25" edge="1">
          <mxGeometry relative="1" as="geometry" />
        </mxCell>
        <mxCell id="rX6alPP_R84iCfiomxFw-23" value="&lt;b&gt;Visualizza i tuoi dati&lt;/b&gt;&lt;br&gt;&lt;br&gt;&lt;u&gt;Modifica i tuoi dati&lt;br&gt;&lt;br&gt;Modifica promozioni&lt;br&gt;&lt;/u&gt;" style="rounded=0;whiteSpace=wrap;html=1;" parent="1" vertex="1">
          <mxGeometry x="720" y="310" width="190" height="80" as="geometry" />
        </mxCell>
        <mxCell id="rX6alPP_R84iCfiomxFw-24" value="&lt;b&gt;Form modifica dati utente&lt;/b&gt;&lt;br&gt;&lt;br&gt;&lt;u&gt;Conferma&lt;br&gt;&lt;/u&gt;&lt;br&gt;&lt;u&gt;indietro&lt;/u&gt;" style="rounded=0;whiteSpace=wrap;html=1;" parent="1" vertex="1">
          <mxGeometry x="620" y="450" width="160" height="90" as="geometry" />
        </mxCell>
        <mxCell id="ifP3_OmQZTy_K7tesigm-4" style="edgeStyle=orthogonalEdgeStyle;rounded=0;orthogonalLoop=1;jettySize=auto;html=1;exitX=1;exitY=0.5;exitDx=0;exitDy=0;entryX=1;entryY=0.25;entryDx=0;entryDy=0;" parent="1" source="rX6alPP_R84iCfiomxFw-25" target="rX6alPP_R84iCfiomxFw-23" edge="1">
          <mxGeometry relative="1" as="geometry" />
        </mxCell>
        <mxCell id="rX6alPP_R84iCfiomxFw-25" value="&lt;b&gt;Form di gestione delle promozioni&lt;/b&gt;&lt;br&gt;&lt;br&gt;&lt;u style=&quot;&quot;&gt;Conferma&lt;br&gt;&lt;/u&gt;&lt;br&gt;&lt;u&gt;Indietro&lt;/u&gt;" style="rounded=0;whiteSpace=wrap;html=1;" parent="1" vertex="1">
          <mxGeometry x="870" y="450" width="190" height="100" as="geometry" />
        </mxCell>
        <mxCell id="rX6alPP_R84iCfiomxFw-30" value="" style="endArrow=classic;html=1;rounded=0;exitX=0;exitY=0.5;exitDx=0;exitDy=0;entryX=0;entryY=0.5;entryDx=0;entryDy=0;" parent="1" source="rX6alPP_R84iCfiomxFw-24" target="rX6alPP_R84iCfiomxFw-23" edge="1">
          <mxGeometry width="50" height="50" relative="1" as="geometry">
            <mxPoint x="400" y="290" as="sourcePoint" />
            <mxPoint x="830" y="270" as="targetPoint" />
            <Array as="points">
              <mxPoint x="590" y="495" />
              <mxPoint x="590" y="350" />
            </Array>
          </mxGeometry>
        </mxCell>
        <mxCell id="rX6alPP_R84iCfiomxFw-32" value="Homepage livello 2" style="text;html=1;strokeColor=none;fillColor=none;align=center;verticalAlign=middle;whiteSpace=wrap;rounded=0;" parent="1" vertex="1">
          <mxGeometry x="515" y="110" width="110" height="30" as="geometry" />
        </mxCell>
        <mxCell id="rX6alPP_R84iCfiomxFw-33" value="" style="rounded=0;whiteSpace=wrap;html=1;" parent="1" vertex="1">
          <mxGeometry x="10" y="730" width="1140" height="630" as="geometry" />
        </mxCell>
        <mxCell id="rX6alPP_R84iCfiomxFw-34" value="" style="rounded=0;whiteSpace=wrap;html=1;" parent="1" vertex="1">
          <mxGeometry x="30" y="790" width="1100" height="130" as="geometry" />
        </mxCell>
        <mxCell id="rX6alPP_R84iCfiomxFw-35" value="HOME" style="ellipse;whiteSpace=wrap;html=1;" parent="1" vertex="1">
          <mxGeometry x="70" y="850" width="90" height="60" as="geometry" />
        </mxCell>
        <mxCell id="rX6alPP_R84iCfiomxFw-36" value="CATALOGO" style="ellipse;whiteSpace=wrap;html=1;" parent="1" vertex="1">
          <mxGeometry x="240" y="850" width="90" height="60" as="geometry" />
        </mxCell>
        <mxCell id="rX6alPP_R84iCfiomxFw-37" value="FAQ" style="ellipse;whiteSpace=wrap;html=1;" parent="1" vertex="1">
          <mxGeometry x="430" y="850" width="90" height="60" as="geometry" />
        </mxCell>
        <mxCell id="rX6alPP_R84iCfiomxFw-38" value="CONTATTACI" style="ellipse;whiteSpace=wrap;html=1;" parent="1" vertex="1">
          <mxGeometry x="610" y="850" width="90" height="60" as="geometry" />
        </mxCell>
        <mxCell id="rX6alPP_R84iCfiomxFw-39" value="AREA RISERVATA" style="ellipse;whiteSpace=wrap;html=1;" parent="1" vertex="1">
          <mxGeometry x="780" y="850" width="110" height="60" as="geometry" />
        </mxCell>
        <mxCell id="rX6alPP_R84iCfiomxFw-40" value="LOGOUT" style="ellipse;whiteSpace=wrap;html=1;" parent="1" vertex="1">
          <mxGeometry x="1010" y="850" width="90" height="60" as="geometry" />
        </mxCell>
        <mxCell id="rX6alPP_R84iCfiomxFw-41" value="Homepage livello 3" style="text;html=1;strokeColor=none;fillColor=none;align=center;verticalAlign=middle;whiteSpace=wrap;rounded=0;" parent="1" vertex="1">
          <mxGeometry x="515" y="800" width="110" height="30" as="geometry" />
        </mxCell>
        <mxCell id="rX6alPP_R84iCfiomxFw-47" value="&lt;b&gt;Visualizza i dati del sito&lt;/b&gt;&lt;br&gt;&lt;br&gt;&lt;u&gt;Modifica x5&lt;br&gt;&lt;/u&gt;" style="rounded=0;whiteSpace=wrap;html=1;" parent="1" vertex="1">
          <mxGeometry x="760" y="950" width="150" height="70" as="geometry" />
        </mxCell>
        <mxCell id="rX6alPP_R84iCfiomxFw-48" value="" style="endArrow=classic;html=1;rounded=0;exitX=0.5;exitY=1;exitDx=0;exitDy=0;entryX=0.5;entryY=0;entryDx=0;entryDy=0;" parent="1" source="rX6alPP_R84iCfiomxFw-39" target="rX6alPP_R84iCfiomxFw-47" edge="1">
          <mxGeometry width="50" height="50" relative="1" as="geometry">
            <mxPoint x="400" y="970" as="sourcePoint" />
            <mxPoint x="450" y="920" as="targetPoint" />
          </mxGeometry>
        </mxCell>
        <mxCell id="rX6alPP_R84iCfiomxFw-49" value="&lt;b&gt;Form di gestione delle aziende&lt;/b&gt;&lt;br&gt;&lt;br&gt;&lt;u&gt;Conferma&lt;br&gt;&lt;/u&gt;&lt;br&gt;&lt;u&gt;Indietro&lt;/u&gt;" style="rounded=0;whiteSpace=wrap;html=1;" parent="1" vertex="1">
          <mxGeometry x="520" y="1040" width="120" height="90" as="geometry" />
        </mxCell>
        <mxCell id="rX6alPP_R84iCfiomxFw-50" value="&lt;b&gt;Form di cancellazione degli utenti&lt;/b&gt;&lt;br&gt;&lt;br&gt;&lt;u&gt;Conferma&lt;br&gt;&lt;/u&gt;&lt;br&gt;&lt;u&gt;Indietro&lt;/u&gt;" style="rounded=0;whiteSpace=wrap;html=1;" parent="1" vertex="1">
          <mxGeometry x="580" y="1160" width="120" height="110" as="geometry" />
        </mxCell>
        <mxCell id="rX6alPP_R84iCfiomxFw-51" value="&lt;b&gt;Form di gestione dei membri dello staff&lt;/b&gt;&lt;br&gt;&lt;br&gt;&lt;u&gt;Conferma&lt;br&gt;&lt;/u&gt;&lt;br&gt;&lt;u&gt;Indietro&lt;/u&gt;" style="rounded=0;whiteSpace=wrap;html=1;" parent="1" vertex="1">
          <mxGeometry x="740" y="1160" width="130" height="110" as="geometry" />
        </mxCell>
        <mxCell id="rX6alPP_R84iCfiomxFw-52" value="&lt;b&gt;Form per la generazione di statistiche&lt;/b&gt;&lt;br&gt;&lt;br&gt;&lt;u&gt;Indietro&lt;/u&gt;" style="rounded=0;whiteSpace=wrap;html=1;" parent="1" vertex="1">
          <mxGeometry x="905" y="1160" width="120" height="110" as="geometry" />
        </mxCell>
        <mxCell id="rX6alPP_R84iCfiomxFw-53" value="&lt;b&gt;Form per la gestione delle FAQ&lt;/b&gt;&lt;br&gt;&lt;br&gt;&lt;u&gt;Conferma&lt;br&gt;&lt;/u&gt;&lt;br&gt;&lt;u&gt;Indietro&lt;/u&gt;" style="rounded=0;whiteSpace=wrap;html=1;" parent="1" vertex="1">
          <mxGeometry x="960" y="1040" width="120" height="90" as="geometry" />
        </mxCell>
        <mxCell id="rX6alPP_R84iCfiomxFw-54" value="" style="endArrow=classic;html=1;rounded=0;exitX=0;exitY=1;exitDx=0;exitDy=0;entryX=0.5;entryY=0;entryDx=0;entryDy=0;" parent="1" source="rX6alPP_R84iCfiomxFw-47" target="rX6alPP_R84iCfiomxFw-49" edge="1">
          <mxGeometry width="50" height="50" relative="1" as="geometry">
            <mxPoint x="400" y="900" as="sourcePoint" />
            <mxPoint x="450" y="850" as="targetPoint" />
            <Array as="points">
              <mxPoint x="580" y="1020" />
            </Array>
          </mxGeometry>
        </mxCell>
        <mxCell id="rX6alPP_R84iCfiomxFw-55" value="" style="endArrow=classic;html=1;rounded=0;exitX=1;exitY=1;exitDx=0;exitDy=0;entryX=0.5;entryY=0;entryDx=0;entryDy=0;" parent="1" source="rX6alPP_R84iCfiomxFw-47" target="rX6alPP_R84iCfiomxFw-53" edge="1">
          <mxGeometry width="50" height="50" relative="1" as="geometry">
            <mxPoint x="400" y="900" as="sourcePoint" />
            <mxPoint x="450" y="850" as="targetPoint" />
            <Array as="points">
              <mxPoint x="1020" y="1020" />
            </Array>
          </mxGeometry>
        </mxCell>
        <mxCell id="rX6alPP_R84iCfiomxFw-56" value="" style="endArrow=classic;html=1;rounded=0;exitX=0.25;exitY=1;exitDx=0;exitDy=0;entryX=0.5;entryY=0;entryDx=0;entryDy=0;" parent="1" source="rX6alPP_R84iCfiomxFw-47" target="rX6alPP_R84iCfiomxFw-50" edge="1">
          <mxGeometry width="50" height="50" relative="1" as="geometry">
            <mxPoint x="400" y="900" as="sourcePoint" />
            <mxPoint x="450" y="850" as="targetPoint" />
            <Array as="points">
              <mxPoint x="798" y="1060" />
              <mxPoint x="798" y="1140" />
              <mxPoint x="670" y="1140" />
              <mxPoint x="640" y="1140" />
            </Array>
          </mxGeometry>
        </mxCell>
        <mxCell id="rX6alPP_R84iCfiomxFw-57" value="" style="endArrow=classic;html=1;rounded=0;exitX=0.5;exitY=1;exitDx=0;exitDy=0;entryX=0.5;entryY=0;entryDx=0;entryDy=0;" parent="1" source="rX6alPP_R84iCfiomxFw-47" target="rX6alPP_R84iCfiomxFw-51" edge="1">
          <mxGeometry width="50" height="50" relative="1" as="geometry">
            <mxPoint x="400" y="900" as="sourcePoint" />
            <mxPoint x="450" y="850" as="targetPoint" />
            <Array as="points">
              <mxPoint x="835" y="1090" />
              <mxPoint x="835" y="1140" />
              <mxPoint x="805" y="1140" />
            </Array>
          </mxGeometry>
        </mxCell>
        <mxCell id="rX6alPP_R84iCfiomxFw-58" value="" style="endArrow=classic;html=1;rounded=0;exitX=0.75;exitY=1;exitDx=0;exitDy=0;entryX=0.5;entryY=0;entryDx=0;entryDy=0;" parent="1" source="rX6alPP_R84iCfiomxFw-47" target="rX6alPP_R84iCfiomxFw-52" edge="1">
          <mxGeometry width="50" height="50" relative="1" as="geometry">
            <mxPoint x="845" y="1030" as="sourcePoint" />
            <mxPoint x="815" y="1170" as="targetPoint" />
            <Array as="points">
              <mxPoint x="873" y="1100" />
              <mxPoint x="873" y="1140" />
              <mxPoint x="930" y="1140" />
              <mxPoint x="965" y="1140" />
            </Array>
          </mxGeometry>
        </mxCell>
        <mxCell id="rX6alPP_R84iCfiomxFw-60" value="" style="endArrow=classic;html=1;rounded=0;exitX=0;exitY=0.5;exitDx=0;exitDy=0;" parent="1" source="rX6alPP_R84iCfiomxFw-49" edge="1">
          <mxGeometry width="50" height="50" relative="1" as="geometry">
            <mxPoint x="400" y="1030" as="sourcePoint" />
            <mxPoint x="470" y="1085" as="targetPoint" />
          </mxGeometry>
        </mxCell>
        <mxCell id="rX6alPP_R84iCfiomxFw-61" value="" style="endArrow=classic;html=1;rounded=0;exitX=0.5;exitY=1;exitDx=0;exitDy=0;entryX=0;entryY=0.5;entryDx=0;entryDy=0;" parent="1" source="rX6alPP_R84iCfiomxFw-51" target="rX6alPP_R84iCfiomxFw-47" edge="1">
          <mxGeometry width="50" height="50" relative="1" as="geometry">
            <mxPoint x="400" y="1030" as="sourcePoint" />
            <mxPoint x="450" y="980" as="targetPoint" />
            <Array as="points">
              <mxPoint x="805" y="1320" />
              <mxPoint x="470" y="1320" />
              <mxPoint x="470" y="985" />
            </Array>
          </mxGeometry>
        </mxCell>
        <mxCell id="rX6alPP_R84iCfiomxFw-62" value="" style="endArrow=classic;html=1;rounded=0;exitX=0.5;exitY=1;exitDx=0;exitDy=0;" parent="1" source="rX6alPP_R84iCfiomxFw-50" edge="1">
          <mxGeometry width="50" height="50" relative="1" as="geometry">
            <mxPoint x="400" y="1030" as="sourcePoint" />
            <mxPoint x="640" y="1320" as="targetPoint" />
          </mxGeometry>
        </mxCell>
        <mxCell id="rX6alPP_R84iCfiomxFw-63" value="" style="endArrow=classic;html=1;rounded=0;exitX=0.5;exitY=1;exitDx=0;exitDy=0;entryX=1;entryY=0.5;entryDx=0;entryDy=0;" parent="1" source="rX6alPP_R84iCfiomxFw-52" target="rX6alPP_R84iCfiomxFw-47" edge="1">
          <mxGeometry width="50" height="50" relative="1" as="geometry">
            <mxPoint x="400" y="1030" as="sourcePoint" />
            <mxPoint x="450" y="980" as="targetPoint" />
            <Array as="points">
              <mxPoint x="965" y="1320" />
              <mxPoint x="1130" y="1320" />
              <mxPoint x="1130" y="985" />
            </Array>
          </mxGeometry>
        </mxCell>
        <mxCell id="rX6alPP_R84iCfiomxFw-64" value="" style="endArrow=classic;html=1;rounded=0;exitX=1;exitY=0.5;exitDx=0;exitDy=0;" parent="1" source="rX6alPP_R84iCfiomxFw-53" edge="1">
          <mxGeometry width="50" height="50" relative="1" as="geometry">
            <mxPoint x="400" y="1030" as="sourcePoint" />
            <mxPoint x="1130" y="1085" as="targetPoint" />
          </mxGeometry>
        </mxCell>
        <mxCell id="LYxm155WBKsM3qQYIvJJ-1" value="AZIENDE" style="ellipse;whiteSpace=wrap;html=1;fontSize=10;fillColor=#dae8fc;strokeColor=#6c8ebf;" parent="1" vertex="1">
          <mxGeometry x="340" y="165" width="90" height="50" as="geometry" />
        </mxCell>
        <mxCell id="ifP3_OmQZTy_K7tesigm-6" value="AZIENDE" style="ellipse;whiteSpace=wrap;html=1;fontSize=10;fillColor=#dae8fc;strokeColor=#6c8ebf;" parent="1" vertex="1">
          <mxGeometry x="340" y="810" width="90" height="50" as="geometry" />
        </mxCell>
      </root>
    </mxGraphModel>
  </diagram>
  <diagram id="IhBzcSBHuUPYpadoAGtF" name="Lv0-1">
    <mxGraphModel dx="1050" dy="541" grid="1" gridSize="10" guides="1" tooltips="1" connect="1" arrows="1" fold="1" page="1" pageScale="1" pageWidth="1390" pageHeight="980" math="0" shadow="0">
      <root>
        <mxCell id="0" />
        <mxCell id="1" parent="0" />
        <mxCell id="_Kh7zMm8I2z3apYk3yrE-1" value="" style="rounded=0;whiteSpace=wrap;html=1;fillColor=#EBF4FF;strokeColor=#FFFFFF;" parent="1" vertex="1">
          <mxGeometry x="225" y="20" width="940" height="370" as="geometry" />
        </mxCell>
        <mxCell id="_Kh7zMm8I2z3apYk3yrE-2" value="&lt;font color=&quot;#6666ff&quot;&gt;Homepage livello 0&lt;/font&gt;" style="text;html=1;strokeColor=none;fillColor=none;align=center;verticalAlign=middle;whiteSpace=wrap;rounded=0;fontColor=#9999FF;fontSize=14;fontStyle=1" parent="1" vertex="1">
          <mxGeometry x="630" y="30" width="160" height="40" as="geometry" />
        </mxCell>
        <mxCell id="VEO2LpkFBc5u-bENxwhb-1" style="edgeStyle=orthogonalEdgeStyle;rounded=0;orthogonalLoop=1;jettySize=auto;html=1;exitX=0.5;exitY=1;exitDx=0;exitDy=0;" parent="1" source="_Kh7zMm8I2z3apYk3yrE-3" target="_Kh7zMm8I2z3apYk3yrE-13" edge="1">
          <mxGeometry relative="1" as="geometry">
            <Array as="points">
              <mxPoint x="445" y="190" />
              <mxPoint x="425" y="190" />
            </Array>
          </mxGeometry>
        </mxCell>
        <mxCell id="_Kh7zMm8I2z3apYk3yrE-3" value="CATALOGO" style="ellipse;whiteSpace=wrap;html=1;fontSize=10;fillColor=#dae8fc;strokeColor=#6c8ebf;" parent="1" vertex="1">
          <mxGeometry x="400" y="100" width="90" height="50" as="geometry" />
        </mxCell>
        <mxCell id="_Kh7zMm8I2z3apYk3yrE-4" value="FAQ" style="ellipse;whiteSpace=wrap;html=1;fontSize=10;fillColor=#dae8fc;strokeColor=#6c8ebf;" parent="1" vertex="1">
          <mxGeometry x="625" y="100" width="80" height="50" as="geometry" />
        </mxCell>
        <mxCell id="_Kh7zMm8I2z3apYk3yrE-5" value="CONTATTACI" style="ellipse;whiteSpace=wrap;html=1;fontSize=10;fillColor=#dae8fc;strokeColor=#6c8ebf;" parent="1" vertex="1">
          <mxGeometry x="735" y="100" width="90" height="50" as="geometry" />
        </mxCell>
        <mxCell id="_Kh7zMm8I2z3apYk3yrE-6" style="edgeStyle=orthogonalEdgeStyle;rounded=0;orthogonalLoop=1;jettySize=auto;html=1;exitX=0.5;exitY=1;exitDx=0;exitDy=0;entryX=0.5;entryY=0;entryDx=0;entryDy=0;" parent="1" source="_Kh7zMm8I2z3apYk3yrE-7" target="_Kh7zMm8I2z3apYk3yrE-14" edge="1">
          <mxGeometry relative="1" as="geometry" />
        </mxCell>
        <mxCell id="_Kh7zMm8I2z3apYk3yrE-7" value="REGISTRATI" style="ellipse;whiteSpace=wrap;html=1;fontSize=10;fillColor=#dae8fc;strokeColor=#6c8ebf;" parent="1" vertex="1">
          <mxGeometry x="840" y="100" width="90" height="50" as="geometry" />
        </mxCell>
        <mxCell id="_Kh7zMm8I2z3apYk3yrE-8" style="edgeStyle=orthogonalEdgeStyle;rounded=0;orthogonalLoop=1;jettySize=auto;html=1;exitX=0.5;exitY=1;exitDx=0;exitDy=0;entryX=0.5;entryY=0;entryDx=0;entryDy=0;" parent="1" source="_Kh7zMm8I2z3apYk3yrE-9" target="_Kh7zMm8I2z3apYk3yrE-17" edge="1">
          <mxGeometry relative="1" as="geometry" />
        </mxCell>
        <mxCell id="_Kh7zMm8I2z3apYk3yrE-9" value="ACCEDI" style="ellipse;whiteSpace=wrap;html=1;fontSize=10;fillColor=#dae8fc;strokeColor=#6c8ebf;" parent="1" vertex="1">
          <mxGeometry x="1027.5" y="100" width="80" height="50" as="geometry" />
        </mxCell>
        <mxCell id="_Kh7zMm8I2z3apYk3yrE-11" value="HOME" style="ellipse;whiteSpace=wrap;html=1;fontSize=10;fillColor=#dae8fc;strokeColor=#6c8ebf;" parent="1" vertex="1">
          <mxGeometry x="275" y="100" width="90" height="50" as="geometry" />
        </mxCell>
        <mxCell id="_Kh7zMm8I2z3apYk3yrE-12" style="edgeStyle=orthogonalEdgeStyle;rounded=0;orthogonalLoop=1;jettySize=auto;html=1;exitX=0.5;exitY=1;exitDx=0;exitDy=0;entryX=0;entryY=0.5;entryDx=0;entryDy=0;strokeColor=#000000;" parent="1" source="_Kh7zMm8I2z3apYk3yrE-13" target="_Kh7zMm8I2z3apYk3yrE-14" edge="1">
          <mxGeometry relative="1" as="geometry" />
        </mxCell>
        <mxCell id="_Kh7zMm8I2z3apYk3yrE-13" value="&lt;b&gt;Visualizzazione delle promozioni offerte dalle aziende tramite ricerca&lt;/b&gt;&lt;br&gt;&lt;br&gt;Per acquisire un coupon &lt;u&gt;registrati&lt;/u&gt;&amp;nbsp;" style="rounded=0;whiteSpace=wrap;html=1;fontSize=11;" parent="1" vertex="1">
          <mxGeometry x="320" y="245" width="210" height="80" as="geometry" />
        </mxCell>
        <mxCell id="_Kh7zMm8I2z3apYk3yrE-14" value="&lt;b&gt;Form registrazione&lt;/b&gt;&lt;br&gt;&lt;br&gt;&lt;u&gt;Registrati&lt;/u&gt;" style="rounded=0;whiteSpace=wrap;html=1;" parent="1" vertex="1">
          <mxGeometry x="825" y="230" width="120" height="60" as="geometry" />
        </mxCell>
        <mxCell id="_Kh7zMm8I2z3apYk3yrE-15" style="edgeStyle=orthogonalEdgeStyle;rounded=0;orthogonalLoop=1;jettySize=auto;html=1;exitX=0.25;exitY=1;exitDx=0;exitDy=0;entryX=1;entryY=0.5;entryDx=0;entryDy=0;strokeColor=#97D077;" parent="1" source="_Kh7zMm8I2z3apYk3yrE-17" target="_Kh7zMm8I2z3apYk3yrE-14" edge="1">
          <mxGeometry relative="1" as="geometry" />
        </mxCell>
        <mxCell id="_Kh7zMm8I2z3apYk3yrE-16" style="edgeStyle=orthogonalEdgeStyle;rounded=0;orthogonalLoop=1;jettySize=auto;html=1;exitX=0.75;exitY=1;exitDx=0;exitDy=0;strokeColor=#EA6B66;" parent="1" source="_Kh7zMm8I2z3apYk3yrE-17" target="_Kh7zMm8I2z3apYk3yrE-18" edge="1">
          <mxGeometry relative="1" as="geometry" />
        </mxCell>
        <mxCell id="_Kh7zMm8I2z3apYk3yrE-17" value="&lt;b&gt;Form accesso&lt;/b&gt;&lt;br&gt;&lt;br&gt;&lt;u&gt;Accedi&lt;br&gt;&lt;/u&gt;&lt;br&gt;Se non sei registrato &lt;u&gt;crea il tuo account&lt;/u&gt;" style="rounded=0;whiteSpace=wrap;html=1;" parent="1" vertex="1">
          <mxGeometry x="1000" y="230" width="135" height="110" as="geometry" />
        </mxCell>
        <mxCell id="_Kh7zMm8I2z3apYk3yrE-18" value="" style="rounded=0;whiteSpace=wrap;html=1;fillColor=#EBF4FF;strokeColor=#FFFFFF;" parent="1" vertex="1">
          <mxGeometry x="250" y="500" width="920" height="430" as="geometry" />
        </mxCell>
        <mxCell id="_Kh7zMm8I2z3apYk3yrE-19" value="&lt;font color=&quot;#6666ff&quot;&gt;Homepage livello 1&lt;/font&gt;" style="text;html=1;strokeColor=none;fillColor=none;align=center;verticalAlign=middle;whiteSpace=wrap;rounded=0;fontColor=#9999FF;fontSize=14;fontStyle=1" parent="1" vertex="1">
          <mxGeometry x="630" y="520" width="160" height="40" as="geometry" />
        </mxCell>
        <mxCell id="_Kh7zMm8I2z3apYk3yrE-20" style="edgeStyle=orthogonalEdgeStyle;rounded=0;orthogonalLoop=1;jettySize=auto;html=1;exitX=0.5;exitY=1;exitDx=0;exitDy=0;entryX=0.5;entryY=0;entryDx=0;entryDy=0;" parent="1" source="_Kh7zMm8I2z3apYk3yrE-21" target="_Kh7zMm8I2z3apYk3yrE-34" edge="1">
          <mxGeometry relative="1" as="geometry" />
        </mxCell>
        <mxCell id="_Kh7zMm8I2z3apYk3yrE-21" value="CATALOGO" style="ellipse;whiteSpace=wrap;html=1;fontSize=10;fillColor=#dae8fc;strokeColor=#6c8ebf;" parent="1" vertex="1">
          <mxGeometry x="455" y="580" width="90" height="50" as="geometry" />
        </mxCell>
        <mxCell id="_Kh7zMm8I2z3apYk3yrE-22" value="FAQ" style="ellipse;whiteSpace=wrap;html=1;fontSize=10;fillColor=#dae8fc;strokeColor=#6c8ebf;" parent="1" vertex="1">
          <mxGeometry x="620" y="580" width="80" height="50" as="geometry" />
        </mxCell>
        <mxCell id="_Kh7zMm8I2z3apYk3yrE-23" value="CONTATTACI" style="ellipse;whiteSpace=wrap;html=1;fontSize=10;fillColor=#dae8fc;strokeColor=#6c8ebf;" parent="1" vertex="1">
          <mxGeometry x="730" y="580" width="90" height="50" as="geometry" />
        </mxCell>
        <mxCell id="VEO2LpkFBc5u-bENxwhb-2" style="edgeStyle=orthogonalEdgeStyle;rounded=0;orthogonalLoop=1;jettySize=auto;html=1;exitX=0.5;exitY=0;exitDx=0;exitDy=0;entryX=1.003;entryY=0.521;entryDx=0;entryDy=0;entryPerimeter=0;" parent="1" source="_Kh7zMm8I2z3apYk3yrE-24" target="_Kh7zMm8I2z3apYk3yrE-1" edge="1">
          <mxGeometry relative="1" as="geometry">
            <Array as="points">
              <mxPoint x="1090" y="485" />
              <mxPoint x="1240" y="485" />
              <mxPoint x="1240" y="213" />
            </Array>
          </mxGeometry>
        </mxCell>
        <mxCell id="_Kh7zMm8I2z3apYk3yrE-24" value="LOGOUT" style="ellipse;whiteSpace=wrap;html=1;fontSize=10;fillColor=#dae8fc;strokeColor=#6c8ebf;" parent="1" vertex="1">
          <mxGeometry x="1045" y="560" width="90" height="50" as="geometry" />
        </mxCell>
        <mxCell id="_Kh7zMm8I2z3apYk3yrE-25" style="edgeStyle=orthogonalEdgeStyle;rounded=0;orthogonalLoop=1;jettySize=auto;html=1;exitX=0.5;exitY=1;exitDx=0;exitDy=0;entryX=0.5;entryY=0;entryDx=0;entryDy=0;" parent="1" source="_Kh7zMm8I2z3apYk3yrE-26" target="_Kh7zMm8I2z3apYk3yrE-30" edge="1">
          <mxGeometry relative="1" as="geometry" />
        </mxCell>
        <mxCell id="_Kh7zMm8I2z3apYk3yrE-26" value="DATI UTENTE" style="ellipse;whiteSpace=wrap;html=1;fontSize=10;fillColor=#dae8fc;strokeColor=#6c8ebf;" parent="1" vertex="1">
          <mxGeometry x="870" y="580" width="90" height="50" as="geometry" />
        </mxCell>
        <mxCell id="_Kh7zMm8I2z3apYk3yrE-28" value="HOME" style="ellipse;whiteSpace=wrap;html=1;fontSize=10;fillColor=#dae8fc;strokeColor=#6c8ebf;" parent="1" vertex="1">
          <mxGeometry x="310" y="580" width="90" height="50" as="geometry" />
        </mxCell>
        <mxCell id="_Kh7zMm8I2z3apYk3yrE-29" style="edgeStyle=orthogonalEdgeStyle;rounded=0;orthogonalLoop=1;jettySize=auto;html=1;exitX=0.5;exitY=1;exitDx=0;exitDy=0;entryX=0.5;entryY=0;entryDx=0;entryDy=0;" parent="1" source="_Kh7zMm8I2z3apYk3yrE-30" target="_Kh7zMm8I2z3apYk3yrE-32" edge="1">
          <mxGeometry relative="1" as="geometry" />
        </mxCell>
        <mxCell id="_Kh7zMm8I2z3apYk3yrE-30" value="&lt;b&gt;Visualizza i tuoi dati&lt;/b&gt;&lt;br&gt;&lt;br&gt;&lt;u&gt;Modifica&lt;/u&gt;" style="rounded=0;whiteSpace=wrap;html=1;" parent="1" vertex="1">
          <mxGeometry x="992.5" y="690" width="125" height="60" as="geometry" />
        </mxCell>
        <mxCell id="_Kh7zMm8I2z3apYk3yrE-31" style="edgeStyle=orthogonalEdgeStyle;rounded=0;orthogonalLoop=1;jettySize=auto;html=1;exitX=0.5;exitY=1;exitDx=0;exitDy=0;entryX=0;entryY=0.5;entryDx=0;entryDy=0;strokeColor=#97D077;" parent="1" source="_Kh7zMm8I2z3apYk3yrE-32" target="_Kh7zMm8I2z3apYk3yrE-30" edge="1">
          <mxGeometry relative="1" as="geometry">
            <Array as="points">
              <mxPoint x="1055" y="900" />
              <mxPoint x="960" y="900" />
              <mxPoint x="960" y="720" />
            </Array>
          </mxGeometry>
        </mxCell>
        <mxCell id="_Kh7zMm8I2z3apYk3yrE-32" value="&lt;b&gt;Form modifica&lt;/b&gt;&lt;br&gt;&lt;br&gt;&lt;u&gt;Conferma&lt;br&gt;&lt;br&gt;Indietro&lt;/u&gt;" style="rounded=0;whiteSpace=wrap;html=1;" parent="1" vertex="1">
          <mxGeometry x="990" y="790" width="130" height="90" as="geometry" />
        </mxCell>
        <mxCell id="_Kh7zMm8I2z3apYk3yrE-33" style="edgeStyle=orthogonalEdgeStyle;rounded=0;orthogonalLoop=1;jettySize=auto;html=1;entryX=0.5;entryY=0;entryDx=0;entryDy=0;" parent="1" source="_Kh7zMm8I2z3apYk3yrE-34" target="_Kh7zMm8I2z3apYk3yrE-36" edge="1">
          <mxGeometry relative="1" as="geometry" />
        </mxCell>
        <mxCell id="_Kh7zMm8I2z3apYk3yrE-34" value="&lt;b&gt;Visualizzazione delle promozioni offerte dalle aziende tramite ricerca&lt;/b&gt;&lt;br&gt;&lt;br&gt;&lt;u&gt;Scarica coupon&lt;/u&gt;" style="rounded=0;whiteSpace=wrap;html=1;fontSize=11;" parent="1" vertex="1">
          <mxGeometry x="320" y="700" width="210" height="70" as="geometry" />
        </mxCell>
        <mxCell id="_Kh7zMm8I2z3apYk3yrE-35" style="edgeStyle=orthogonalEdgeStyle;rounded=0;orthogonalLoop=1;jettySize=auto;html=1;exitX=1;exitY=0.5;exitDx=0;exitDy=0;entryX=1;entryY=0.5;entryDx=0;entryDy=0;" parent="1" source="_Kh7zMm8I2z3apYk3yrE-36" target="_Kh7zMm8I2z3apYk3yrE-21" edge="1">
          <mxGeometry relative="1" as="geometry">
            <Array as="points">
              <mxPoint x="580" y="845" />
              <mxPoint x="580" y="605" />
            </Array>
          </mxGeometry>
        </mxCell>
        <mxCell id="_Kh7zMm8I2z3apYk3yrE-36" value="&lt;b&gt;Visualizzazione coupon&lt;/b&gt;&lt;br&gt;&lt;br&gt;&lt;u&gt;Indietro&lt;/u&gt;" style="rounded=0;whiteSpace=wrap;html=1;fontSize=11;" parent="1" vertex="1">
          <mxGeometry x="347.5" y="810" width="155" height="70" as="geometry" />
        </mxCell>
        <mxCell id="_Kh7zMm8I2z3apYk3yrE-37" value="AZIENDE" style="ellipse;whiteSpace=wrap;html=1;fontSize=10;fillColor=#dae8fc;strokeColor=#6c8ebf;" parent="1" vertex="1">
          <mxGeometry x="510" y="100" width="90" height="50" as="geometry" />
        </mxCell>
      </root>
    </mxGraphModel>
  </diagram>
  <diagram id="_CZQYzVmhGMX9hNdbz7M" name="LinkCompleto">
    <mxGraphModel dx="1105" dy="569" grid="1" gridSize="10" guides="1" tooltips="1" connect="1" arrows="1" fold="1" page="1" pageScale="1" pageWidth="1654" pageHeight="2336" math="0" shadow="0">
      <root>
        <mxCell id="0" />
        <mxCell id="1" parent="0" />
        <mxCell id="4aJIFwbeHdOX9UbjXJzM-1" value="" style="rounded=0;whiteSpace=wrap;html=1;fillColor=#EBF4FF;strokeColor=#FFFFFF;" parent="1" vertex="1">
          <mxGeometry x="225" y="30" width="975" height="380" as="geometry" />
        </mxCell>
        <mxCell id="4aJIFwbeHdOX9UbjXJzM-2" value="&lt;font color=&quot;#6666ff&quot;&gt;Homepage livello 0&lt;/font&gt;" style="text;html=1;strokeColor=none;fillColor=none;align=center;verticalAlign=middle;whiteSpace=wrap;rounded=0;fontColor=#9999FF;fontSize=14;fontStyle=1" parent="1" vertex="1">
          <mxGeometry x="630" y="40" width="160" height="40" as="geometry" />
        </mxCell>
        <mxCell id="KwmABRm1TYDsv7Y9KH1R-3" style="edgeStyle=orthogonalEdgeStyle;rounded=0;orthogonalLoop=1;jettySize=auto;html=1;exitX=0.5;exitY=1;exitDx=0;exitDy=0;" parent="1" source="4aJIFwbeHdOX9UbjXJzM-4" target="4aJIFwbeHdOX9UbjXJzM-13" edge="1">
          <mxGeometry relative="1" as="geometry" />
        </mxCell>
        <mxCell id="4aJIFwbeHdOX9UbjXJzM-4" value="CATALOGO" style="ellipse;whiteSpace=wrap;html=1;fontSize=10;fillColor=#dae8fc;strokeColor=#6c8ebf;" parent="1" vertex="1">
          <mxGeometry x="502.5" y="100" width="90" height="50" as="geometry" />
        </mxCell>
        <mxCell id="4aJIFwbeHdOX9UbjXJzM-5" value="FAQ" style="ellipse;whiteSpace=wrap;html=1;fontSize=10;fillColor=#dae8fc;strokeColor=#6c8ebf;" parent="1" vertex="1">
          <mxGeometry x="625" y="100" width="70" height="50" as="geometry" />
        </mxCell>
        <mxCell id="4aJIFwbeHdOX9UbjXJzM-6" value="CONTATTACI" style="ellipse;whiteSpace=wrap;html=1;fontSize=10;fillColor=#dae8fc;strokeColor=#6c8ebf;" parent="1" vertex="1">
          <mxGeometry x="725" y="100" width="90" height="50" as="geometry" />
        </mxCell>
        <mxCell id="4aJIFwbeHdOX9UbjXJzM-7" style="edgeStyle=orthogonalEdgeStyle;rounded=0;orthogonalLoop=1;jettySize=auto;html=1;exitX=0.5;exitY=1;exitDx=0;exitDy=0;entryX=0.5;entryY=0;entryDx=0;entryDy=0;" parent="1" source="4aJIFwbeHdOX9UbjXJzM-8" target="4aJIFwbeHdOX9UbjXJzM-14" edge="1">
          <mxGeometry relative="1" as="geometry" />
        </mxCell>
        <mxCell id="4aJIFwbeHdOX9UbjXJzM-8" value="REGISTRATI" style="ellipse;whiteSpace=wrap;html=1;fontSize=10;fillColor=#dae8fc;strokeColor=#6c8ebf;" parent="1" vertex="1">
          <mxGeometry x="1030" y="100" width="90" height="50" as="geometry" />
        </mxCell>
        <mxCell id="4aJIFwbeHdOX9UbjXJzM-9" style="edgeStyle=orthogonalEdgeStyle;rounded=0;orthogonalLoop=1;jettySize=auto;html=1;exitX=0.5;exitY=1;exitDx=0;exitDy=0;entryX=0.5;entryY=0;entryDx=0;entryDy=0;" parent="1" source="4aJIFwbeHdOX9UbjXJzM-10" target="4aJIFwbeHdOX9UbjXJzM-17" edge="1">
          <mxGeometry relative="1" as="geometry" />
        </mxCell>
        <mxCell id="4aJIFwbeHdOX9UbjXJzM-10" value="ACCEDI" style="ellipse;whiteSpace=wrap;html=1;fontSize=10;fillColor=#dae8fc;strokeColor=#6c8ebf;" parent="1" vertex="1">
          <mxGeometry x="842.5" y="100" width="80" height="50" as="geometry" />
        </mxCell>
        <mxCell id="4aJIFwbeHdOX9UbjXJzM-11" value="HOME" style="ellipse;whiteSpace=wrap;html=1;fontSize=10;fillColor=#dae8fc;strokeColor=#6c8ebf;" parent="1" vertex="1">
          <mxGeometry x="260" y="100" width="90" height="50" as="geometry" />
        </mxCell>
        <mxCell id="QpbWkVUd1pW7eTHd4vx1-7" style="edgeStyle=orthogonalEdgeStyle;rounded=0;orthogonalLoop=1;jettySize=auto;html=1;exitX=0.5;exitY=1;exitDx=0;exitDy=0;entryX=0;entryY=0.75;entryDx=0;entryDy=0;" parent="1" source="4aJIFwbeHdOX9UbjXJzM-13" target="4aJIFwbeHdOX9UbjXJzM-14" edge="1">
          <mxGeometry relative="1" as="geometry">
            <Array as="points">
              <mxPoint x="548" y="360" />
              <mxPoint x="990" y="360" />
              <mxPoint x="990" y="290" />
            </Array>
          </mxGeometry>
        </mxCell>
        <mxCell id="4aJIFwbeHdOX9UbjXJzM-13" value="&lt;b&gt;Visualizzazione delle promozioni offerte dalle aziende tramite ricerca&lt;/b&gt;&lt;br&gt;&lt;br&gt;Per acquisire un coupon &lt;u&gt;registrati&lt;/u&gt;&amp;nbsp;" style="rounded=0;whiteSpace=wrap;html=1;fontSize=11;" parent="1" vertex="1">
          <mxGeometry x="442.5" y="235" width="210" height="80" as="geometry" />
        </mxCell>
        <mxCell id="4aJIFwbeHdOX9UbjXJzM-14" value="&lt;b&gt;Form registrazione&lt;/b&gt;&lt;br&gt;&lt;br&gt;&lt;u&gt;Registrati&lt;/u&gt;" style="rounded=0;whiteSpace=wrap;html=1;" parent="1" vertex="1">
          <mxGeometry x="1015" y="245" width="120" height="60" as="geometry" />
        </mxCell>
        <mxCell id="QpbWkVUd1pW7eTHd4vx1-9" style="edgeStyle=orthogonalEdgeStyle;rounded=0;orthogonalLoop=1;jettySize=auto;html=1;exitX=1;exitY=0.75;exitDx=0;exitDy=0;entryX=0;entryY=0.25;entryDx=0;entryDy=0;strokeColor=#97D077;" parent="1" source="4aJIFwbeHdOX9UbjXJzM-17" target="4aJIFwbeHdOX9UbjXJzM-14" edge="1">
          <mxGeometry relative="1" as="geometry">
            <Array as="points">
              <mxPoint x="970" y="292" />
              <mxPoint x="970" y="260" />
            </Array>
          </mxGeometry>
        </mxCell>
        <mxCell id="hAUGN2nMBL-gjCwEe3Ey-2" style="edgeStyle=orthogonalEdgeStyle;rounded=0;orthogonalLoop=1;jettySize=auto;html=1;exitX=0.5;exitY=1;exitDx=0;exitDy=0;entryX=0;entryY=0.5;entryDx=0;entryDy=0;strokeColor=#EA6B66;" parent="1" source="4aJIFwbeHdOX9UbjXJzM-17" target="4aJIFwbeHdOX9UbjXJzM-18" edge="1">
          <mxGeometry relative="1" as="geometry">
            <Array as="points">
              <mxPoint x="883" y="430" />
              <mxPoint x="190" y="430" />
              <mxPoint x="190" y="715" />
            </Array>
          </mxGeometry>
        </mxCell>
        <mxCell id="hAUGN2nMBL-gjCwEe3Ey-4" style="edgeStyle=orthogonalEdgeStyle;rounded=0;orthogonalLoop=1;jettySize=auto;html=1;exitX=0.5;exitY=1;exitDx=0;exitDy=0;entryX=0;entryY=0.5;entryDx=0;entryDy=0;strokeColor=#EA6B66;" parent="1" source="4aJIFwbeHdOX9UbjXJzM-17" target="4aJIFwbeHdOX9UbjXJzM-75" edge="1">
          <mxGeometry relative="1" as="geometry">
            <Array as="points">
              <mxPoint x="883" y="430" />
              <mxPoint x="190" y="430" />
              <mxPoint x="190" y="1215" />
            </Array>
          </mxGeometry>
        </mxCell>
        <mxCell id="hAUGN2nMBL-gjCwEe3Ey-5" style="edgeStyle=orthogonalEdgeStyle;rounded=0;orthogonalLoop=1;jettySize=auto;html=1;exitX=0.5;exitY=1;exitDx=0;exitDy=0;entryX=0;entryY=0.5;entryDx=0;entryDy=0;strokeColor=#EA6B66;" parent="1" source="4aJIFwbeHdOX9UbjXJzM-17" target="4aJIFwbeHdOX9UbjXJzM-92" edge="1">
          <mxGeometry relative="1" as="geometry">
            <Array as="points">
              <mxPoint x="882" y="430" />
              <mxPoint x="190" y="430" />
              <mxPoint x="190" y="1788" />
            </Array>
          </mxGeometry>
        </mxCell>
        <mxCell id="4aJIFwbeHdOX9UbjXJzM-17" value="&lt;b&gt;Form accesso&lt;/b&gt;&lt;br&gt;&lt;br&gt;&lt;u&gt;&lt;font color=&quot;#ea6b66&quot;&gt;Accedi&lt;/font&gt;&lt;br&gt;&lt;/u&gt;&lt;br&gt;Se non sei registrato &lt;u&gt;&lt;font color=&quot;#97d077&quot;&gt;crea il tuo account&lt;/font&gt;&lt;/u&gt;" style="rounded=0;whiteSpace=wrap;html=1;" parent="1" vertex="1">
          <mxGeometry x="815" y="210" width="135" height="110" as="geometry" />
        </mxCell>
        <mxCell id="4aJIFwbeHdOX9UbjXJzM-18" value="" style="rounded=0;whiteSpace=wrap;html=1;fillColor=#EBF4FF;strokeColor=#FFFFFF;" parent="1" vertex="1">
          <mxGeometry x="225" y="500" width="975" height="430" as="geometry" />
        </mxCell>
        <mxCell id="4aJIFwbeHdOX9UbjXJzM-19" value="&lt;font color=&quot;#6666ff&quot;&gt;Homepage livello 1&lt;/font&gt;" style="text;html=1;strokeColor=none;fillColor=none;align=center;verticalAlign=middle;whiteSpace=wrap;rounded=0;fontColor=#9999FF;fontSize=14;fontStyle=1" parent="1" vertex="1">
          <mxGeometry x="632.5" y="510" width="160" height="40" as="geometry" />
        </mxCell>
        <mxCell id="4aJIFwbeHdOX9UbjXJzM-20" style="edgeStyle=orthogonalEdgeStyle;rounded=0;orthogonalLoop=1;jettySize=auto;html=1;exitX=0.5;exitY=1;exitDx=0;exitDy=0;entryX=0.5;entryY=0;entryDx=0;entryDy=0;" parent="1" source="4aJIFwbeHdOX9UbjXJzM-21" target="4aJIFwbeHdOX9UbjXJzM-34" edge="1">
          <mxGeometry relative="1" as="geometry" />
        </mxCell>
        <mxCell id="4aJIFwbeHdOX9UbjXJzM-21" value="CATALOGO" style="ellipse;whiteSpace=wrap;html=1;fontSize=10;fillColor=#dae8fc;strokeColor=#6c8ebf;" parent="1" vertex="1">
          <mxGeometry x="470" y="580" width="90" height="50" as="geometry" />
        </mxCell>
        <mxCell id="4aJIFwbeHdOX9UbjXJzM-22" value="FAQ" style="ellipse;whiteSpace=wrap;html=1;fontSize=10;fillColor=#dae8fc;strokeColor=#6c8ebf;" parent="1" vertex="1">
          <mxGeometry x="620" y="580" width="80" height="50" as="geometry" />
        </mxCell>
        <mxCell id="4aJIFwbeHdOX9UbjXJzM-23" value="CONTATTACI" style="ellipse;whiteSpace=wrap;html=1;fontSize=10;fillColor=#dae8fc;strokeColor=#6c8ebf;" parent="1" vertex="1">
          <mxGeometry x="730" y="580" width="90" height="50" as="geometry" />
        </mxCell>
        <mxCell id="Lk9khQsBYxiK4ykRVaGo-2" style="edgeStyle=orthogonalEdgeStyle;rounded=0;orthogonalLoop=1;jettySize=auto;html=1;exitX=1;exitY=0.5;exitDx=0;exitDy=0;entryX=1;entryY=0.5;entryDx=0;entryDy=0;strokeColor=#CCCC00;" parent="1" source="4aJIFwbeHdOX9UbjXJzM-25" target="4aJIFwbeHdOX9UbjXJzM-1" edge="1">
          <mxGeometry relative="1" as="geometry">
            <Array as="points">
              <mxPoint x="1260" y="605" />
              <mxPoint x="1260" y="220" />
            </Array>
          </mxGeometry>
        </mxCell>
        <mxCell id="4aJIFwbeHdOX9UbjXJzM-25" value="LOGOUT" style="ellipse;whiteSpace=wrap;html=1;fontSize=10;fillColor=#dae8fc;strokeColor=#6c8ebf;" parent="1" vertex="1">
          <mxGeometry x="1030" y="580" width="90" height="50" as="geometry" />
        </mxCell>
        <mxCell id="4aJIFwbeHdOX9UbjXJzM-26" style="edgeStyle=orthogonalEdgeStyle;rounded=0;orthogonalLoop=1;jettySize=auto;html=1;exitX=0.5;exitY=1;exitDx=0;exitDy=0;entryX=0.5;entryY=0;entryDx=0;entryDy=0;" parent="1" source="4aJIFwbeHdOX9UbjXJzM-27" target="4aJIFwbeHdOX9UbjXJzM-30" edge="1">
          <mxGeometry relative="1" as="geometry" />
        </mxCell>
        <mxCell id="4aJIFwbeHdOX9UbjXJzM-27" value="AREA UTENTE" style="ellipse;whiteSpace=wrap;html=1;fontSize=10;fillColor=#dae8fc;strokeColor=#6c8ebf;" parent="1" vertex="1">
          <mxGeometry x="865" y="580" width="95" height="50" as="geometry" />
        </mxCell>
        <mxCell id="4aJIFwbeHdOX9UbjXJzM-28" value="HOME" style="ellipse;whiteSpace=wrap;html=1;fontSize=10;fillColor=#dae8fc;strokeColor=#6c8ebf;" parent="1" vertex="1">
          <mxGeometry x="245" y="580" width="90" height="50" as="geometry" />
        </mxCell>
        <mxCell id="4aJIFwbeHdOX9UbjXJzM-29" style="edgeStyle=orthogonalEdgeStyle;rounded=0;orthogonalLoop=1;jettySize=auto;html=1;exitX=0.5;exitY=1;exitDx=0;exitDy=0;entryX=0.5;entryY=0;entryDx=0;entryDy=0;" parent="1" source="4aJIFwbeHdOX9UbjXJzM-30" target="4aJIFwbeHdOX9UbjXJzM-32" edge="1">
          <mxGeometry relative="1" as="geometry" />
        </mxCell>
        <mxCell id="4aJIFwbeHdOX9UbjXJzM-30" value="&lt;b&gt;Visualizza i tuoi dati&lt;/b&gt;&lt;br&gt;&lt;br&gt;&lt;u&gt;Modifica&lt;/u&gt;" style="rounded=0;whiteSpace=wrap;html=1;" parent="1" vertex="1">
          <mxGeometry x="850" y="685" width="125" height="60" as="geometry" />
        </mxCell>
        <mxCell id="KwmABRm1TYDsv7Y9KH1R-1" style="edgeStyle=orthogonalEdgeStyle;rounded=0;orthogonalLoop=1;jettySize=auto;html=1;exitX=0.5;exitY=1;exitDx=0;exitDy=0;entryX=1;entryY=0.5;entryDx=0;entryDy=0;strokeColor=#6600CC;" parent="1" source="4aJIFwbeHdOX9UbjXJzM-32" target="4aJIFwbeHdOX9UbjXJzM-30" edge="1">
          <mxGeometry relative="1" as="geometry">
            <Array as="points">
              <mxPoint x="910" y="910" />
              <mxPoint x="1030" y="910" />
              <mxPoint x="1030" y="715" />
            </Array>
          </mxGeometry>
        </mxCell>
        <mxCell id="4aJIFwbeHdOX9UbjXJzM-32" value="&lt;b&gt;Form modifica&lt;/b&gt;&lt;br&gt;&lt;br&gt;&lt;u&gt;Conferma&lt;br&gt;&lt;br&gt;&lt;font color=&quot;#6600cc&quot;&gt;Indietro&lt;/font&gt;&lt;/u&gt;" style="rounded=0;whiteSpace=wrap;html=1;" parent="1" vertex="1">
          <mxGeometry x="847.5" y="800" width="130" height="90" as="geometry" />
        </mxCell>
        <mxCell id="4aJIFwbeHdOX9UbjXJzM-33" style="edgeStyle=orthogonalEdgeStyle;rounded=0;orthogonalLoop=1;jettySize=auto;html=1;entryX=0.5;entryY=0;entryDx=0;entryDy=0;" parent="1" source="4aJIFwbeHdOX9UbjXJzM-34" target="4aJIFwbeHdOX9UbjXJzM-36" edge="1">
          <mxGeometry relative="1" as="geometry" />
        </mxCell>
        <mxCell id="4aJIFwbeHdOX9UbjXJzM-34" value="&lt;b&gt;Visualizzazione delle promozioni offerte dalle aziende tramite ricerca&lt;/b&gt;&lt;br&gt;&lt;br&gt;&lt;u&gt;Scarica coupon&lt;/u&gt;" style="rounded=0;whiteSpace=wrap;html=1;fontSize=11;" parent="1" vertex="1">
          <mxGeometry x="410" y="710" width="210" height="70" as="geometry" />
        </mxCell>
        <mxCell id="KwmABRm1TYDsv7Y9KH1R-5" style="edgeStyle=orthogonalEdgeStyle;rounded=0;orthogonalLoop=1;jettySize=auto;html=1;exitX=0.5;exitY=1;exitDx=0;exitDy=0;entryX=1;entryY=0.5;entryDx=0;entryDy=0;" parent="1" source="4aJIFwbeHdOX9UbjXJzM-36" target="4aJIFwbeHdOX9UbjXJzM-21" edge="1">
          <mxGeometry relative="1" as="geometry">
            <Array as="points">
              <mxPoint x="515" y="910" />
              <mxPoint x="650" y="910" />
              <mxPoint x="650" y="660" />
              <mxPoint x="580" y="660" />
              <mxPoint x="580" y="605" />
            </Array>
          </mxGeometry>
        </mxCell>
        <mxCell id="4aJIFwbeHdOX9UbjXJzM-36" value="&lt;b&gt;Visualizzazione coupon&lt;/b&gt;&lt;br&gt;&lt;br&gt;&lt;u&gt;Indietro&lt;/u&gt;" style="rounded=0;whiteSpace=wrap;html=1;fontSize=11;" parent="1" vertex="1">
          <mxGeometry x="437.5" y="820" width="155" height="70" as="geometry" />
        </mxCell>
        <mxCell id="4aJIFwbeHdOX9UbjXJzM-37" value="AZIENDE" style="ellipse;whiteSpace=wrap;html=1;fontSize=10;fillColor=#dae8fc;strokeColor=#6c8ebf;" parent="1" vertex="1">
          <mxGeometry x="380" y="100" width="90" height="50" as="geometry" />
        </mxCell>
        <mxCell id="4aJIFwbeHdOX9UbjXJzM-75" value="" style="rounded=0;whiteSpace=wrap;html=1;fillColor=#EBF4FF;strokeColor=#FFFFFF;" parent="1" vertex="1">
          <mxGeometry x="230" y="990" width="980" height="450" as="geometry" />
        </mxCell>
        <mxCell id="4aJIFwbeHdOX9UbjXJzM-76" value="&lt;font color=&quot;#6666ff&quot;&gt;Homepage livello 2&lt;/font&gt;" style="text;html=1;strokeColor=none;fillColor=none;align=center;verticalAlign=middle;whiteSpace=wrap;rounded=0;fontColor=#9999FF;fontSize=14;fontStyle=1" parent="1" vertex="1">
          <mxGeometry x="630" y="1000" width="160" height="40" as="geometry" />
        </mxCell>
        <mxCell id="4aJIFwbeHdOX9UbjXJzM-92" value="" style="rounded=0;whiteSpace=wrap;html=1;fillColor=#EBF4FF;strokeColor=#FFFFFF;" parent="1" vertex="1">
          <mxGeometry x="230" y="1495" width="1140" height="585" as="geometry" />
        </mxCell>
        <mxCell id="4aJIFwbeHdOX9UbjXJzM-93" value="&lt;font color=&quot;#6666ff&quot;&gt;Homepage livello 3&lt;/font&gt;" style="text;html=1;strokeColor=none;fillColor=none;align=center;verticalAlign=middle;whiteSpace=wrap;rounded=0;fontColor=#9999FF;fontSize=14;fontStyle=1" parent="1" vertex="1">
          <mxGeometry x="720" y="1520" width="160" height="40" as="geometry" />
        </mxCell>
        <mxCell id="KwmABRm1TYDsv7Y9KH1R-4" value="AZIENDE" style="ellipse;whiteSpace=wrap;html=1;fontSize=10;fillColor=#dae8fc;strokeColor=#6c8ebf;" parent="1" vertex="1">
          <mxGeometry x="360" y="580" width="90" height="50" as="geometry" />
        </mxCell>
        <mxCell id="KwmABRm1TYDsv7Y9KH1R-6" value="CATALOGO" style="ellipse;whiteSpace=wrap;html=1;fontSize=10;fillColor=#dae8fc;strokeColor=#6c8ebf;" parent="1" vertex="1">
          <mxGeometry x="502.5" y="1060" width="90" height="50" as="geometry" />
        </mxCell>
        <mxCell id="KwmABRm1TYDsv7Y9KH1R-7" value="FAQ" style="ellipse;whiteSpace=wrap;html=1;fontSize=10;fillColor=#dae8fc;strokeColor=#6c8ebf;" parent="1" vertex="1">
          <mxGeometry x="630" y="1060" width="80" height="50" as="geometry" />
        </mxCell>
        <mxCell id="KwmABRm1TYDsv7Y9KH1R-8" value="CONTATTACI" style="ellipse;whiteSpace=wrap;html=1;fontSize=10;fillColor=#dae8fc;strokeColor=#6c8ebf;" parent="1" vertex="1">
          <mxGeometry x="742.5" y="1060" width="90" height="50" as="geometry" />
        </mxCell>
        <mxCell id="Lk9khQsBYxiK4ykRVaGo-1" style="edgeStyle=orthogonalEdgeStyle;rounded=0;orthogonalLoop=1;jettySize=auto;html=1;exitX=1;exitY=0.5;exitDx=0;exitDy=0;entryX=1;entryY=0.5;entryDx=0;entryDy=0;strokeColor=#CCCC00;" parent="1" source="KwmABRm1TYDsv7Y9KH1R-9" target="4aJIFwbeHdOX9UbjXJzM-1" edge="1">
          <mxGeometry relative="1" as="geometry">
            <Array as="points">
              <mxPoint x="1260" y="1085" />
              <mxPoint x="1260" y="220" />
            </Array>
          </mxGeometry>
        </mxCell>
        <mxCell id="KwmABRm1TYDsv7Y9KH1R-9" value="LOGOUT" style="ellipse;whiteSpace=wrap;html=1;fontSize=10;fillColor=#dae8fc;strokeColor=#6c8ebf;" parent="1" vertex="1">
          <mxGeometry x="1042.5" y="1060" width="90" height="50" as="geometry" />
        </mxCell>
        <mxCell id="5PbMi1VedXRERlK2LgAU-2" style="edgeStyle=orthogonalEdgeStyle;rounded=0;orthogonalLoop=1;jettySize=auto;html=1;exitX=0.5;exitY=1;exitDx=0;exitDy=0;entryX=0.5;entryY=0;entryDx=0;entryDy=0;" parent="1" source="KwmABRm1TYDsv7Y9KH1R-10" target="5PbMi1VedXRERlK2LgAU-1" edge="1">
          <mxGeometry relative="1" as="geometry" />
        </mxCell>
        <mxCell id="KwmABRm1TYDsv7Y9KH1R-10" value="AREA STAFF" style="ellipse;whiteSpace=wrap;html=1;fontSize=10;fillColor=#dae8fc;strokeColor=#6c8ebf;" parent="1" vertex="1">
          <mxGeometry x="865" y="1060" width="90" height="50" as="geometry" />
        </mxCell>
        <mxCell id="KwmABRm1TYDsv7Y9KH1R-11" value="HOME" style="ellipse;whiteSpace=wrap;html=1;fontSize=10;fillColor=#dae8fc;strokeColor=#6c8ebf;" parent="1" vertex="1">
          <mxGeometry x="257.5" y="1060" width="90" height="50" as="geometry" />
        </mxCell>
        <mxCell id="KwmABRm1TYDsv7Y9KH1R-12" value="AZIENDE" style="ellipse;whiteSpace=wrap;html=1;fontSize=10;fillColor=#dae8fc;strokeColor=#6c8ebf;" parent="1" vertex="1">
          <mxGeometry x="372.5" y="1060" width="90" height="50" as="geometry" />
        </mxCell>
        <mxCell id="PZvFNXjYma4xrxjnW8BW-1" style="edgeStyle=orthogonalEdgeStyle;rounded=0;orthogonalLoop=1;jettySize=auto;html=1;exitX=0.25;exitY=1;exitDx=0;exitDy=0;entryX=1;entryY=0.5;entryDx=0;entryDy=0;strokeColor=#FF9933;" parent="1" source="5PbMi1VedXRERlK2LgAU-1" target="1Rg8gtkvbG7LpWDIjFJo-1" edge="1">
          <mxGeometry relative="1" as="geometry" />
        </mxCell>
        <mxCell id="QjF8jva6aqlCZSk0cG9L-1" style="edgeStyle=orthogonalEdgeStyle;rounded=0;orthogonalLoop=1;jettySize=auto;html=1;exitX=0.75;exitY=1;exitDx=0;exitDy=0;entryX=0;entryY=0.5;entryDx=0;entryDy=0;strokeColor=#CC00CC;" parent="1" source="5PbMi1VedXRERlK2LgAU-1" target="aMnKQhnO3jiVBTzuCQvS-1" edge="1">
          <mxGeometry relative="1" as="geometry" />
        </mxCell>
        <mxCell id="5PbMi1VedXRERlK2LgAU-1" value="&lt;b&gt;Visualizza i tuoi dati&lt;/b&gt;&lt;br&gt;&lt;br&gt;&lt;u&gt;&lt;font color=&quot;#ff9933&quot;&gt;Modifica i tuoi dati&lt;/font&gt;&lt;br&gt;&lt;br&gt;&lt;font color=&quot;#cc00cc&quot;&gt;Modifica promozioni&lt;/font&gt;&lt;br&gt;&lt;/u&gt;" style="rounded=0;whiteSpace=wrap;html=1;" parent="1" vertex="1">
          <mxGeometry x="820" y="1175" width="180" height="80" as="geometry" />
        </mxCell>
        <mxCell id="WN6FcbN7_bGWKpH72zbC-2" style="edgeStyle=orthogonalEdgeStyle;rounded=0;orthogonalLoop=1;jettySize=auto;html=1;exitX=0;exitY=0.5;exitDx=0;exitDy=0;entryX=0;entryY=0.5;entryDx=0;entryDy=0;strokeColor=#6600CC;" edge="1" parent="1" source="1Rg8gtkvbG7LpWDIjFJo-1" target="5PbMi1VedXRERlK2LgAU-1">
          <mxGeometry relative="1" as="geometry" />
        </mxCell>
        <mxCell id="1Rg8gtkvbG7LpWDIjFJo-1" value="&lt;b&gt;Form modifica dati utente&lt;/b&gt;&lt;br&gt;&lt;br&gt;&lt;u&gt;Conferma&lt;br&gt;&lt;/u&gt;&lt;br&gt;&lt;u&gt;&lt;font color=&quot;#6600cc&quot;&gt;Indietro&lt;/font&gt;&lt;/u&gt;" style="rounded=0;whiteSpace=wrap;html=1;" parent="1" vertex="1">
          <mxGeometry x="655" y="1320" width="160" height="90" as="geometry" />
        </mxCell>
        <mxCell id="WN6FcbN7_bGWKpH72zbC-1" style="edgeStyle=orthogonalEdgeStyle;rounded=0;orthogonalLoop=1;jettySize=auto;html=1;exitX=1;exitY=0.5;exitDx=0;exitDy=0;entryX=1;entryY=0.5;entryDx=0;entryDy=0;strokeColor=#6600CC;" edge="1" parent="1" source="aMnKQhnO3jiVBTzuCQvS-1" target="5PbMi1VedXRERlK2LgAU-1">
          <mxGeometry relative="1" as="geometry">
            <Array as="points">
              <mxPoint x="1190" y="1365" />
              <mxPoint x="1190" y="1215" />
            </Array>
          </mxGeometry>
        </mxCell>
        <mxCell id="aMnKQhnO3jiVBTzuCQvS-1" value="&lt;b&gt;Form di gestione delle promozioni&lt;/b&gt;&lt;br&gt;&lt;br&gt;&lt;u style=&quot;&quot;&gt;Conferma&lt;br&gt;&lt;/u&gt;&lt;br&gt;&lt;u&gt;&lt;font color=&quot;#6600cc&quot;&gt;Indietro&lt;/font&gt;&lt;/u&gt;" style="rounded=0;whiteSpace=wrap;html=1;" parent="1" vertex="1">
          <mxGeometry x="995" y="1315" width="170" height="100" as="geometry" />
        </mxCell>
        <mxCell id="WN6FcbN7_bGWKpH72zbC-3" value="CATALOGO" style="ellipse;whiteSpace=wrap;html=1;fontSize=10;fillColor=#dae8fc;strokeColor=#6c8ebf;" vertex="1" parent="1">
          <mxGeometry x="500" y="1570" width="90" height="50" as="geometry" />
        </mxCell>
        <mxCell id="WN6FcbN7_bGWKpH72zbC-4" value="FAQ" style="ellipse;whiteSpace=wrap;html=1;fontSize=10;fillColor=#dae8fc;strokeColor=#6c8ebf;" vertex="1" parent="1">
          <mxGeometry x="640" y="1570" width="80" height="50" as="geometry" />
        </mxCell>
        <mxCell id="WN6FcbN7_bGWKpH72zbC-5" value="CONTATTACI" style="ellipse;whiteSpace=wrap;html=1;fontSize=10;fillColor=#dae8fc;strokeColor=#6c8ebf;" vertex="1" parent="1">
          <mxGeometry x="767.5" y="1570" width="90" height="50" as="geometry" />
        </mxCell>
        <mxCell id="ipNG9KSPAht84m1xO6xq-16" style="edgeStyle=orthogonalEdgeStyle;rounded=0;orthogonalLoop=1;jettySize=auto;html=1;exitX=1;exitY=0.5;exitDx=0;exitDy=0;entryX=1;entryY=0.5;entryDx=0;entryDy=0;strokeColor=#CCCC00;" edge="1" parent="1" source="WN6FcbN7_bGWKpH72zbC-6" target="4aJIFwbeHdOX9UbjXJzM-1">
          <mxGeometry relative="1" as="geometry">
            <Array as="points">
              <mxPoint x="1260" y="1595" />
              <mxPoint x="1260" y="220" />
            </Array>
          </mxGeometry>
        </mxCell>
        <mxCell id="WN6FcbN7_bGWKpH72zbC-6" value="LOGOUT" style="ellipse;whiteSpace=wrap;html=1;fontSize=10;fillColor=#dae8fc;strokeColor=#6c8ebf;" vertex="1" parent="1">
          <mxGeometry x="1070" y="1570" width="90" height="50" as="geometry" />
        </mxCell>
        <mxCell id="mZuwsiHfHSxH25EOkmKi-1" style="edgeStyle=orthogonalEdgeStyle;rounded=0;orthogonalLoop=1;jettySize=auto;html=1;exitX=0.5;exitY=1;exitDx=0;exitDy=0;entryX=0.5;entryY=0;entryDx=0;entryDy=0;" edge="1" parent="1" source="WN6FcbN7_bGWKpH72zbC-7" target="5wHv9rLKALxOHHFKmGFy-1">
          <mxGeometry relative="1" as="geometry" />
        </mxCell>
        <mxCell id="WN6FcbN7_bGWKpH72zbC-7" value="AREA AMMINISTRATORE" style="ellipse;whiteSpace=wrap;html=1;fontSize=10;fillColor=#dae8fc;strokeColor=#6c8ebf;" vertex="1" parent="1">
          <mxGeometry x="895" y="1570" width="120" height="50" as="geometry" />
        </mxCell>
        <mxCell id="WN6FcbN7_bGWKpH72zbC-8" value="HOME" style="ellipse;whiteSpace=wrap;html=1;fontSize=10;fillColor=#dae8fc;strokeColor=#6c8ebf;" vertex="1" parent="1">
          <mxGeometry x="250" y="1570" width="90" height="50" as="geometry" />
        </mxCell>
        <mxCell id="WN6FcbN7_bGWKpH72zbC-9" value="AZIENDE" style="ellipse;whiteSpace=wrap;html=1;fontSize=10;fillColor=#dae8fc;strokeColor=#6c8ebf;" vertex="1" parent="1">
          <mxGeometry x="372.5" y="1570" width="90" height="50" as="geometry" />
        </mxCell>
        <mxCell id="ipNG9KSPAht84m1xO6xq-2" style="edgeStyle=orthogonalEdgeStyle;rounded=0;orthogonalLoop=1;jettySize=auto;html=1;exitX=0.25;exitY=1;exitDx=0;exitDy=0;entryX=0.5;entryY=0;entryDx=0;entryDy=0;strokeColor=#CCCC00;" edge="1" parent="1" source="5wHv9rLKALxOHHFKmGFy-1" target="r-NGDwME-Wmv86zfygXq-1">
          <mxGeometry relative="1" as="geometry" />
        </mxCell>
        <mxCell id="ipNG9KSPAht84m1xO6xq-3" style="edgeStyle=orthogonalEdgeStyle;rounded=0;orthogonalLoop=1;jettySize=auto;html=1;exitX=0.5;exitY=1;exitDx=0;exitDy=0;strokeColor=#00B800;" edge="1" parent="1" source="5wHv9rLKALxOHHFKmGFy-1" target="j7dwHk_z2Z5mZqltQjsG-1">
          <mxGeometry relative="1" as="geometry" />
        </mxCell>
        <mxCell id="ipNG9KSPAht84m1xO6xq-4" style="edgeStyle=orthogonalEdgeStyle;rounded=0;orthogonalLoop=1;jettySize=auto;html=1;exitX=0.75;exitY=1;exitDx=0;exitDy=0;entryX=0.5;entryY=0;entryDx=0;entryDy=0;strokeColor=#00CCCC;" edge="1" parent="1" source="5wHv9rLKALxOHHFKmGFy-1" target="p2UlZXqNdOsy6-eC4ppw-1">
          <mxGeometry relative="1" as="geometry" />
        </mxCell>
        <mxCell id="ipNG9KSPAht84m1xO6xq-5" style="edgeStyle=orthogonalEdgeStyle;rounded=0;orthogonalLoop=1;jettySize=auto;html=1;exitX=1;exitY=0.75;exitDx=0;exitDy=0;strokeColor=#990000;" edge="1" parent="1" source="5wHv9rLKALxOHHFKmGFy-1" target="ipNG9KSPAht84m1xO6xq-1">
          <mxGeometry relative="1" as="geometry" />
        </mxCell>
        <mxCell id="ipNG9KSPAht84m1xO6xq-6" style="edgeStyle=orthogonalEdgeStyle;rounded=0;orthogonalLoop=1;jettySize=auto;html=1;exitX=0;exitY=0.75;exitDx=0;exitDy=0;entryX=1;entryY=0.5;entryDx=0;entryDy=0;strokeColor=#FFCCE6;" edge="1" parent="1" source="5wHv9rLKALxOHHFKmGFy-1" target="g72zTEY63O1JPylnXX_w-1">
          <mxGeometry relative="1" as="geometry" />
        </mxCell>
        <mxCell id="5wHv9rLKALxOHHFKmGFy-1" value="&lt;b&gt;Visualizza i dati del sito&lt;/b&gt;&lt;br&gt;&lt;br&gt;&lt;u&gt;&lt;font color=&quot;#ff99cc&quot;&gt;Modifica i dati delle aziende&lt;/font&gt;&lt;br&gt;&lt;br&gt;&lt;font color=&quot;#cccc00&quot;&gt;Cancella gli utenti registrati&lt;/font&gt;&lt;br&gt;&lt;br&gt;&lt;font color=&quot;#00b800&quot;&gt;Modifica i dati dello staff&lt;/font&gt;&lt;br&gt;&lt;br&gt;&lt;font color=&quot;#00cccc&quot;&gt;Visualizza statistiche&lt;/font&gt;&lt;br&gt;&lt;br&gt;&lt;font color=&quot;#990000&quot;&gt;Modifica FAQ&lt;/font&gt;&lt;br&gt;&lt;/u&gt;" style="rounded=0;whiteSpace=wrap;html=1;" vertex="1" parent="1">
          <mxGeometry x="865" y="1673" width="180" height="170" as="geometry" />
        </mxCell>
        <mxCell id="ipNG9KSPAht84m1xO6xq-12" style="edgeStyle=orthogonalEdgeStyle;rounded=0;orthogonalLoop=1;jettySize=auto;html=1;exitX=0.5;exitY=1;exitDx=0;exitDy=0;entryX=0;entryY=0.5;entryDx=0;entryDy=0;strokeColor=#6600CC;" edge="1" parent="1" source="g72zTEY63O1JPylnXX_w-1" target="5wHv9rLKALxOHHFKmGFy-1">
          <mxGeometry relative="1" as="geometry">
            <Array as="points">
              <mxPoint x="680" y="1910" />
              <mxPoint x="600" y="1910" />
              <mxPoint x="600" y="1758" />
            </Array>
          </mxGeometry>
        </mxCell>
        <mxCell id="g72zTEY63O1JPylnXX_w-1" value="&lt;b&gt;Form di gestione delle aziende&lt;/b&gt;&lt;br&gt;&lt;br&gt;&lt;u&gt;Conferma&lt;br&gt;&lt;/u&gt;&lt;br&gt;&lt;u&gt;&lt;font color=&quot;#6600cc&quot;&gt;Indietro&lt;/font&gt;&lt;/u&gt;" style="rounded=0;whiteSpace=wrap;html=1;" vertex="1" parent="1">
          <mxGeometry x="620" y="1790" width="120" height="100" as="geometry" />
        </mxCell>
        <mxCell id="ipNG9KSPAht84m1xO6xq-10" style="edgeStyle=orthogonalEdgeStyle;rounded=0;orthogonalLoop=1;jettySize=auto;html=1;exitX=0.5;exitY=1;exitDx=0;exitDy=0;entryX=0;entryY=0.25;entryDx=0;entryDy=0;strokeColor=#6600CC;" edge="1" parent="1" source="r-NGDwME-Wmv86zfygXq-1" target="5wHv9rLKALxOHHFKmGFy-1">
          <mxGeometry relative="1" as="geometry">
            <Array as="points">
              <mxPoint x="782" y="2040" />
              <mxPoint x="570" y="2040" />
              <mxPoint x="570" y="1715" />
            </Array>
          </mxGeometry>
        </mxCell>
        <mxCell id="r-NGDwME-Wmv86zfygXq-1" value="&lt;b&gt;Form di cancellazione degli utenti&lt;/b&gt;&lt;br&gt;&lt;br&gt;&lt;u&gt;Conferma&lt;br&gt;&lt;/u&gt;&lt;br&gt;&lt;u&gt;&lt;font color=&quot;#6600cc&quot;&gt;Indietro&lt;/font&gt;&lt;/u&gt;" style="rounded=0;whiteSpace=wrap;html=1;" vertex="1" parent="1">
          <mxGeometry x="715" y="1920" width="135" height="100" as="geometry" />
        </mxCell>
        <mxCell id="ipNG9KSPAht84m1xO6xq-11" style="edgeStyle=orthogonalEdgeStyle;rounded=0;orthogonalLoop=1;jettySize=auto;html=1;exitX=0.5;exitY=1;exitDx=0;exitDy=0;entryX=0.399;entryY=1.01;entryDx=0;entryDy=0;entryPerimeter=0;strokeColor=#6600CC;" edge="1" parent="1" source="j7dwHk_z2Z5mZqltQjsG-1" target="5wHv9rLKALxOHHFKmGFy-1">
          <mxGeometry relative="1" as="geometry">
            <Array as="points">
              <mxPoint x="955" y="2040" />
              <mxPoint x="870" y="2040" />
              <mxPoint x="870" y="1900" />
              <mxPoint x="937" y="1900" />
            </Array>
          </mxGeometry>
        </mxCell>
        <mxCell id="j7dwHk_z2Z5mZqltQjsG-1" value="&lt;b&gt;Form di gestione dei membri dello staff&lt;/b&gt;&lt;br&gt;&lt;br&gt;&lt;u&gt;Conferma&lt;br&gt;&lt;/u&gt;&lt;br&gt;&lt;u&gt;I&lt;font color=&quot;#6600cc&quot;&gt;ndietro&lt;/font&gt;&lt;/u&gt;" style="rounded=0;whiteSpace=wrap;html=1;" vertex="1" parent="1">
          <mxGeometry x="890" y="1920" width="130" height="100" as="geometry" />
        </mxCell>
        <mxCell id="ipNG9KSPAht84m1xO6xq-9" style="edgeStyle=orthogonalEdgeStyle;rounded=0;orthogonalLoop=1;jettySize=auto;html=1;exitX=0.5;exitY=1;exitDx=0;exitDy=0;entryX=1;entryY=0.25;entryDx=0;entryDy=0;strokeColor=#6600CC;" edge="1" parent="1" source="p2UlZXqNdOsy6-eC4ppw-1" target="5wHv9rLKALxOHHFKmGFy-1">
          <mxGeometry relative="1" as="geometry">
            <Array as="points">
              <mxPoint x="1121" y="2040" />
              <mxPoint x="1340" y="2040" />
              <mxPoint x="1340" y="1716" />
            </Array>
          </mxGeometry>
        </mxCell>
        <mxCell id="p2UlZXqNdOsy6-eC4ppw-1" value="&lt;b&gt;Form per la generazione di statistiche&lt;/b&gt;&lt;br&gt;&lt;br&gt;&lt;u&gt;&lt;font color=&quot;#6600cc&quot;&gt;Indietro&lt;/font&gt;&lt;/u&gt;" style="rounded=0;whiteSpace=wrap;html=1;" vertex="1" parent="1">
          <mxGeometry x="1052.5" y="1920" width="137.5" height="90" as="geometry" />
        </mxCell>
        <mxCell id="ipNG9KSPAht84m1xO6xq-14" style="edgeStyle=orthogonalEdgeStyle;rounded=0;orthogonalLoop=1;jettySize=auto;html=1;exitX=0.5;exitY=1;exitDx=0;exitDy=0;strokeColor=#6600CC;" edge="1" parent="1" source="ipNG9KSPAht84m1xO6xq-1" target="5wHv9rLKALxOHHFKmGFy-1">
          <mxGeometry relative="1" as="geometry">
            <Array as="points">
              <mxPoint x="1225" y="1910" />
              <mxPoint x="1310" y="1910" />
              <mxPoint x="1310" y="1758" />
            </Array>
          </mxGeometry>
        </mxCell>
        <mxCell id="ipNG9KSPAht84m1xO6xq-1" value="&lt;b&gt;Form per la gestione delle FAQ&lt;/b&gt;&lt;br&gt;&lt;br&gt;&lt;u&gt;Conferma&lt;br&gt;&lt;/u&gt;&lt;br&gt;&lt;u&gt;&lt;font color=&quot;#6600cc&quot;&gt;Indietro&lt;/font&gt;&lt;/u&gt;" style="rounded=0;whiteSpace=wrap;html=1;" vertex="1" parent="1">
          <mxGeometry x="1165" y="1790" width="120" height="100" as="geometry" />
        </mxCell>
      </root>
    </mxGraphModel>
  </diagram>
</mxfile>
